{
  "accessors": [
    {
      "bufferView": 2,
      "componentType": 5126,
      "count": 11097,
      "max": [
        68.59620666503906,
        182.5303955078125,
        18.962583541870117
      ],
      "min": [
        -68.59620666503906,
        -0.03651399910449982,
        -13.422160148620605
      ],
      "type": "VEC3"
    },
    {
      "bufferView": 2,
      "byteOffset": 133164,
      "componentType": 5126,
      "count": 11097,
      "max": [
        0.999984622001648,
        0.9999845027923584,
        0.9999228715896606
      ],
      "min": [
        -0.9999843835830688,
        -0.9999847412109375,
        -0.999921977519989
      ],
      "type": "VEC3"
    },
    {
      "bufferView": 3,
      "componentType": 5126,
      "count": 11097,
      "max": [
        0.9999498724937439,
        0.9999303221702576,
        0.9999852180480957,
        1.0
      ],
      "min": [
        -0.9999499320983887,
        -0.9998406767845154,
        -0.9997037053108215,
        -1.0
      ],
      "type": "VEC4"
    },
    {
      "bufferView": 1,
      "componentType": 5126,
      "count": 11097,
      "max": [
        0.9989060163497925,
        0.9993460178375244
      ],
      "min": [
        0.0021730000153183937,
        0.001133000012487173
      ],
      "type": "VEC2"
    },
    {
      "bufferView": 0,
      "componentType": 5125,
      "count": 60201,
      "type": "SCALAR"
    },
    {
      "bufferView": 2,
      "byteOffset": 266328,
      "componentType": 5126,
      "count": 11613,
      "max": [
        69.36327362060547,
        171.66238403320313,
        21.971851348876953
      ],
      "min": [
        -69.36327362060547,
        -0.0002209999947808683,
        -14.7509126663208
      ],
      "type": "VEC3"
    },
    {
      "bufferView": 2,
      "byteOffset": 405684,
      "componentType": 5126,
      "count": 11613,
      "max": [
        0.999984622001648,
        0.999921977519989,
        0.9998003840446472
      ],
      "min": [
        -0.9999843835830688,
        -0.9998002648353577,
        -0.9999220967292786
      ],
      "type": "VEC3"
    },
    {
      "bufferView": 3,
      "byteOffset": 177552,
      "componentType": 5126,
      "count": 11613,
      "max": [
        0.9999312162399292,
        0.9999299049377441,
        0.9999906420707703,
        1.0
      ],
      "min": [
        -0.9998092651367188,
        -0.9998406767845154,
        -0.9997507929801941,
        -1.0
      ],
      "type": "VEC4"
    },
    {
      "bufferView": 1,
      "byteOffset": 88776,
      "componentType": 5126,
      "count": 11613,
      "max": [
        0.996645987033844,
        0.9990000128746033
      ],
      "min": [
        0.0022040000185370445,
        0.001921999966725707
      ],
      "type": "VEC2"
    },
    {
      "bufferView": 0,
      "byteOffset": 240804,
      "componentType": 5125,
      "count": 62811,
      "type": "SCALAR"
    }
  ],
  "asset": {
    "extras": {
      "author": "Sanzid (https://sketchfab.com/sanzid)",
      "license": "CC-BY-4.0 (http://creativecommons.org/licenses/by/4.0/)",
      "source": "https://sketchfab.com/3d-models/ue4-mannequin-base-mesh-6bf7c37f52f4477f83dfa0de5c5803db",
      "title": "UE4 Mannequin base mesh"
    },
    "generator": "Sketchfab-15.70.0",
    "version": "2.0"
  },
  "bufferViews": [
    {
      "buffer": 0,
      "byteLength": 492048,
      "name": "floatBufferViews",
      "target": 34963
    },
    {
      "buffer": 0,
      "byteLength": 181680,
      "byteOffset": 492048,
      "byteStride": 8,
      "name": "floatBufferViews",
      "target": 34962
    },
    {
      "buffer": 0,
      "byteLength": 545040,
      "byteOffset": 673728,
      "byteStride": 12,
      "name": "floatBufferViews",
      "target": 34962
    },
    {
      "buffer": 0,
      "byteLength": 363360,
      "byteOffset": 1218768,
      "byteStride": 16,
      "name": "floatBufferViews",
      "target": 34962
    }
  ],
  "buffers": [
    {
      "byteLength": 1582128,
      "uri": "scene.bin"
    }
  ],
  "images": [
    {
      "uri": "textures/Plastic_baseColor.png"
    },
    {
      "uri": "textures/Plastic_metallicRoughness.png"
    },
    {
      "uri": "textures/Plastic_emissive.jpeg"
    },
    {
      "uri": "textures/Plastic_normal.png"
    },
    {
      "uri": "textures/Metal_baseColor.png"
    },
    {
      "uri": "textures/Metal_metallicRoughness.png"
    },
    {
      "uri": "textures/Metal_emissive.jpeg"
    },
    {
      "uri": "textures/Metal_normal.png"
    }
  ],
  "materials": [
    {
      "alphaMode": "BLEND",
      "doubleSided": true,
      "emissiveFactor": [
        1.0,
        1.0,
        1.0
      ],
      "emissiveTexture": {
        "index": 2
      },
      "name": "Plastic",
      "normalTexture": {
        "index": 3
      },
      "occlusionTexture": {
        "index": 1
      },
      "pbrMetallicRoughness": {
        "baseColorTexture": {
          "index": 0
        },
        "metallicRoughnessTexture": {
          "index": 1
        }
      }
    },
    {
      "alphaMode": "BLEND",
      "doubleSided": true,
      "emissiveFactor": [
        1.0,
        1.0,
        1.0
      ],
      "emissiveTexture": {
        "index": 6
      },
      "name": "Metal",
      "normalTexture": {
        "index": 7
      },
      "occlusionTexture": {
        "index": 5
      },
      "pbrMetallicRoughness": {
        "baseColorTexture": {
          "index": 4
        },
        "metallicRoughnessTexture": {
          "index": 5
        }
      }
    }
  ],
  "meshes": [
    {
      "name": "defaultMaterial",
      "primitives": [
        {
          "attributes": {
            "NORMAL": 1,
            "POSITION": 0,
            "TANGENT": 2,
            "TEXCOORD_0": 3
          },
          "indices": 4,
          "material": 0,
          "mode": 4
        }
      ]
    },
    {
      "name": "defaultMaterial",
      "primitives": [
        {
          "attributes": {
            "NORMAL": 6,
            "POSITION": 5,
            "TANGENT": 7,
            "TEXCOORD_0": 8
          },
          "indices": 9,
          "material": 1,
          "mode": 4
        }
      ]
    }
  ],
  "nodes": [
    {
      "children": [
        1
      ],
      "matrix": [
        1.0,
        0.0,
        0.0,
        0.0,
        0.0,
        2.220446049250313e-16,
        -1.0,
        0.0,
        0.0,
        1.0,
        2.220446049250313e-16,
        0.0,
        0.0,
        0.0,
        0.0,
        1.0
      ],
      "name": "Sketchfab_model"
    },
    {
      "children": [
        2
      ],
      "matrix": [
        1.0,
        0.0,
        0.0,
        0.0,
        0.0,
        -4.371139006309477e-08,
        0.999999999999999,
        0.0,
        0.0,
        -0.999999999999999,
        -4.371139006309477e-08,
        0.0,
        0.0,
        0.0,
        0.0,
        1.0
      ],
      "name": "Collada visual scene group"
    },
    {
      "children": [
        3,
        4
      ],
      "name": "Ue4"
    },
    {
      "mesh": 0,
      "name": "defaultMaterial"
    },
    {
      "mesh": 1,
      "name": "defaultMaterial"
    }
  ],
  "samplers": [
    {
      "magFilter": 9729,
      "minFilter": 9987,
      "wrapS": 10497,
      "wrapT": 10497
    }
  ],
  "scene": 0,
  "scenes": [
    {
      "name": "Sketchfab_Scene",
      "nodes": [
        0
      ]
    }
  ],
  "textures": [
    {
      "sampler": 0,
      "source": 0
    },
    {
      "sampler": 0,
      "source": 1
    },
    {
      "sampler": 0,
      "source": 2
    },
    {
      "sampler": 0,
      "source": 3
    },
    {
      "sampler": 0,
      "source": 4
    },
    {
      "sampler": 0,
      "source": 5
    },
    {
      "sampler": 0,
      "source": 6
    },
    {
      "sampler": 0,
      "source": 7
    }
  ]
}
